# xmcd CD database file
#
# Track frame offsets:
#	150
#	17127
#	33642
#	50605
#	65695
#	80417
#	97377
#	110777
#	124060
#	142227
#
# Disc length: 2120 seconds
#
# Revision: 2
# Processed by: cddbd v1.5.1PL0 Copyright (c) Steve Scherf et al.
# Submitted via: CDex 1.51
#
DISCID=9c08460a
DTITLE=Shenandoah - Shenandoah
DYEAR=1987
DGENRE=Country
TTITLE0=Stop The Rain
TTITLE1=She Doesn't Cry Anymore
TTITLE2=It Ain't Love Until It Hurts
TTITLE3=The Show Must Go On
TTITLE4=They Don't Make Love Like We Used To
TTITLE5=What She Wants
TTITLE6=She's Still Here
TTITLE7=I'm Gonna Hurt Her On The Radio
TTITLE8=Lily Of The Alley
TTITLE9=Can't Stop Now
EXTD=YEAR: 1987
EXTT0=
EXTT1=
EXTT2=
EXTT3=
EXTT4=
EXTT5=
EXTT6=
EXTT7=
EXTT8=
EXTT9=
PLAYORDER=
